<mxfile host="app.diagrams.net" agent="Mozilla/5.0 (Windows NT 10.0; Win64; x64) AppleWebKit/537.36 (KHTML, like Gecko) Chrome/128.0.0.0 Safari/537.36 OPR/114.0.0.0" version="25.0.3">
  <diagram id="C5RBs43oDa-KdzZeNtuy" name="Page-1">
    <mxGraphModel dx="1930" dy="566" grid="1" gridSize="10" guides="1" tooltips="1" connect="1" arrows="1" fold="1" page="1" pageScale="1" pageWidth="827" pageHeight="1169" math="0" shadow="0">
      <root>
        <mxCell id="WIyWlLk6GJQsqaUBKTNV-0" />
        <mxCell id="WIyWlLk6GJQsqaUBKTNV-1" parent="WIyWlLk6GJQsqaUBKTNV-0" />
        <mxCell id="WIyWlLk6GJQsqaUBKTNV-2" value="" style="rounded=0;html=1;jettySize=auto;orthogonalLoop=1;fontSize=11;endArrow=block;endFill=0;endSize=8;strokeWidth=1;shadow=0;labelBackgroundColor=none;edgeStyle=orthogonalEdgeStyle;" parent="WIyWlLk6GJQsqaUBKTNV-1" edge="1">
          <mxGeometry relative="1" as="geometry">
            <mxPoint x="-420" y="100" as="sourcePoint" />
            <mxPoint x="-430" y="150" as="targetPoint" />
          </mxGeometry>
        </mxCell>
        <mxCell id="WIyWlLk6GJQsqaUBKTNV-4" value="" style="rounded=0;html=1;jettySize=auto;orthogonalLoop=1;fontSize=11;endArrow=block;endFill=0;endSize=8;strokeWidth=1;shadow=0;labelBackgroundColor=none;edgeStyle=orthogonalEdgeStyle;" parent="WIyWlLk6GJQsqaUBKTNV-1" edge="1">
          <mxGeometry x="0.1193" y="-20" relative="1" as="geometry">
            <mxPoint as="offset" />
            <mxPoint x="-430" y="230" as="sourcePoint" />
            <mxPoint x="-430" y="270" as="targetPoint" />
          </mxGeometry>
        </mxCell>
        <mxCell id="9dnhrZeiodQg4RsuuzlO-0" value="&lt;div&gt;&lt;div&gt;input diemso&lt;/div&gt;&lt;/div&gt;" style="shape=parallelogram;perimeter=parallelogramPerimeter;whiteSpace=wrap;html=1;fixedSize=1;" vertex="1" parent="WIyWlLk6GJQsqaUBKTNV-1">
          <mxGeometry x="-490" y="160" width="120" height="60" as="geometry" />
        </mxCell>
        <mxCell id="9dnhrZeiodQg4RsuuzlO-6" value="star" style="ellipse;whiteSpace=wrap;html=1;" vertex="1" parent="WIyWlLk6GJQsqaUBKTNV-1">
          <mxGeometry x="-490" y="50" width="110" height="50" as="geometry" />
        </mxCell>
        <mxCell id="9dnhrZeiodQg4RsuuzlO-19" value="" style="edgeStyle=orthogonalEdgeStyle;rounded=0;orthogonalLoop=1;jettySize=auto;html=1;" edge="1" parent="WIyWlLk6GJQsqaUBKTNV-1" source="9dnhrZeiodQg4RsuuzlO-17">
          <mxGeometry relative="1" as="geometry">
            <mxPoint x="-226" y="308" as="targetPoint" />
          </mxGeometry>
        </mxCell>
        <mxCell id="9dnhrZeiodQg4RsuuzlO-21" value="" style="edgeStyle=orthogonalEdgeStyle;rounded=0;orthogonalLoop=1;jettySize=auto;html=1;" edge="1" parent="WIyWlLk6GJQsqaUBKTNV-1" source="9dnhrZeiodQg4RsuuzlO-17">
          <mxGeometry relative="1" as="geometry">
            <mxPoint x="-430" y="380" as="targetPoint" />
          </mxGeometry>
        </mxCell>
        <mxCell id="9dnhrZeiodQg4RsuuzlO-17" value="if diemso&amp;lt;4" style="rhombus;whiteSpace=wrap;html=1;" vertex="1" parent="WIyWlLk6GJQsqaUBKTNV-1">
          <mxGeometry x="-500" y="270" width="140" height="80" as="geometry" />
        </mxCell>
        <mxCell id="9dnhrZeiodQg4RsuuzlO-24" value="" style="edgeStyle=orthogonalEdgeStyle;rounded=0;orthogonalLoop=1;jettySize=auto;html=1;" edge="1" parent="WIyWlLk6GJQsqaUBKTNV-1">
          <mxGeometry relative="1" as="geometry">
            <mxPoint x="-155.5" y="350" as="sourcePoint" />
            <mxPoint x="-155.5" y="402" as="targetPoint" />
          </mxGeometry>
        </mxCell>
        <mxCell id="9dnhrZeiodQg4RsuuzlO-56" value="" style="edgeStyle=orthogonalEdgeStyle;rounded=0;orthogonalLoop=1;jettySize=auto;html=1;" edge="1" parent="WIyWlLk6GJQsqaUBKTNV-1">
          <mxGeometry relative="1" as="geometry">
            <mxPoint x="-440" y="450" as="sourcePoint" />
            <mxPoint x="-200" y="630" as="targetPoint" />
            <Array as="points">
              <mxPoint x="-440" y="630" />
            </Array>
          </mxGeometry>
        </mxCell>
        <mxCell id="9dnhrZeiodQg4RsuuzlO-23" value="output: khong dat" style="shape=parallelogram;perimeter=parallelogramPerimeter;whiteSpace=wrap;html=1;fixedSize=1;" vertex="1" parent="WIyWlLk6GJQsqaUBKTNV-1">
          <mxGeometry x="-490" y="380" width="120" height="60" as="geometry" />
        </mxCell>
        <mxCell id="9dnhrZeiodQg4RsuuzlO-28" value="yes" style="text;html=1;align=center;verticalAlign=middle;resizable=0;points=[];autosize=1;strokeColor=none;fillColor=none;" vertex="1" parent="WIyWlLk6GJQsqaUBKTNV-1">
          <mxGeometry x="-460" y="348" width="40" height="30" as="geometry" />
        </mxCell>
        <mxCell id="9dnhrZeiodQg4RsuuzlO-29" value="no" style="text;html=1;align=center;verticalAlign=middle;resizable=0;points=[];autosize=1;strokeColor=none;fillColor=none;" vertex="1" parent="WIyWlLk6GJQsqaUBKTNV-1">
          <mxGeometry x="-350" y="278" width="40" height="30" as="geometry" />
        </mxCell>
        <mxCell id="9dnhrZeiodQg4RsuuzlO-32" value="" style="edgeStyle=orthogonalEdgeStyle;rounded=0;orthogonalLoop=1;jettySize=auto;html=1;" edge="1" parent="WIyWlLk6GJQsqaUBKTNV-1" source="9dnhrZeiodQg4RsuuzlO-51" target="9dnhrZeiodQg4RsuuzlO-31">
          <mxGeometry relative="1" as="geometry" />
        </mxCell>
        <mxCell id="9dnhrZeiodQg4RsuuzlO-30" value="if&amp;nbsp;&amp;nbsp;&lt;div&gt;diemso&amp;lt;=6&lt;/div&gt;" style="rhombus;whiteSpace=wrap;html=1;" vertex="1" parent="WIyWlLk6GJQsqaUBKTNV-1">
          <mxGeometry x="-230" y="268" width="150" height="80" as="geometry" />
        </mxCell>
        <mxCell id="9dnhrZeiodQg4RsuuzlO-39" value="" style="edgeStyle=orthogonalEdgeStyle;rounded=0;orthogonalLoop=1;jettySize=auto;html=1;" edge="1" parent="WIyWlLk6GJQsqaUBKTNV-1" source="9dnhrZeiodQg4RsuuzlO-31" target="9dnhrZeiodQg4RsuuzlO-38">
          <mxGeometry relative="1" as="geometry" />
        </mxCell>
        <mxCell id="9dnhrZeiodQg4RsuuzlO-42" value="" style="edgeStyle=orthogonalEdgeStyle;rounded=0;orthogonalLoop=1;jettySize=auto;html=1;" edge="1" parent="WIyWlLk6GJQsqaUBKTNV-1" source="9dnhrZeiodQg4RsuuzlO-31" target="9dnhrZeiodQg4RsuuzlO-41">
          <mxGeometry relative="1" as="geometry" />
        </mxCell>
        <mxCell id="9dnhrZeiodQg4RsuuzlO-31" value="if diemso&amp;lt;=8" style="rhombus;whiteSpace=wrap;html=1;" vertex="1" parent="WIyWlLk6GJQsqaUBKTNV-1">
          <mxGeometry y="268" width="150" height="80" as="geometry" />
        </mxCell>
        <mxCell id="9dnhrZeiodQg4RsuuzlO-34" value="yes" style="text;html=1;align=center;verticalAlign=middle;resizable=0;points=[];autosize=1;strokeColor=none;fillColor=none;" vertex="1" parent="WIyWlLk6GJQsqaUBKTNV-1">
          <mxGeometry x="-195" y="350" width="40" height="30" as="geometry" />
        </mxCell>
        <mxCell id="9dnhrZeiodQg4RsuuzlO-58" value="" style="edgeStyle=orthogonalEdgeStyle;rounded=0;orthogonalLoop=1;jettySize=auto;html=1;" edge="1" parent="WIyWlLk6GJQsqaUBKTNV-1" source="9dnhrZeiodQg4RsuuzlO-36" target="9dnhrZeiodQg4RsuuzlO-57">
          <mxGeometry relative="1" as="geometry" />
        </mxCell>
        <mxCell id="9dnhrZeiodQg4RsuuzlO-36" value="output: Trung binh" style="whiteSpace=wrap;html=1;" vertex="1" parent="WIyWlLk6GJQsqaUBKTNV-1">
          <mxGeometry x="-215" y="388" width="120" height="60" as="geometry" />
        </mxCell>
        <mxCell id="9dnhrZeiodQg4RsuuzlO-60" value="" style="edgeStyle=orthogonalEdgeStyle;rounded=0;orthogonalLoop=1;jettySize=auto;html=1;entryX=1;entryY=0.5;entryDx=0;entryDy=0;" edge="1" parent="WIyWlLk6GJQsqaUBKTNV-1" source="9dnhrZeiodQg4RsuuzlO-38" target="9dnhrZeiodQg4RsuuzlO-57">
          <mxGeometry relative="1" as="geometry">
            <mxPoint x="75" y="640" as="targetPoint" />
            <Array as="points">
              <mxPoint x="75" y="475" />
              <mxPoint x="76" y="475" />
              <mxPoint x="76" y="630" />
            </Array>
          </mxGeometry>
        </mxCell>
        <mxCell id="9dnhrZeiodQg4RsuuzlO-38" value="output: khÃ¡&amp;nbsp;" style="whiteSpace=wrap;html=1;" vertex="1" parent="WIyWlLk6GJQsqaUBKTNV-1">
          <mxGeometry x="15" y="380" width="120" height="60" as="geometry" />
        </mxCell>
        <mxCell id="9dnhrZeiodQg4RsuuzlO-40" value="yes" style="text;html=1;align=center;verticalAlign=middle;resizable=0;points=[];autosize=1;strokeColor=none;fillColor=none;" vertex="1" parent="WIyWlLk6GJQsqaUBKTNV-1">
          <mxGeometry x="30" y="348" width="40" height="30" as="geometry" />
        </mxCell>
        <mxCell id="9dnhrZeiodQg4RsuuzlO-44" value="" style="edgeStyle=orthogonalEdgeStyle;rounded=0;orthogonalLoop=1;jettySize=auto;html=1;" edge="1" parent="WIyWlLk6GJQsqaUBKTNV-1" source="9dnhrZeiodQg4RsuuzlO-41" target="9dnhrZeiodQg4RsuuzlO-43">
          <mxGeometry relative="1" as="geometry" />
        </mxCell>
        <mxCell id="9dnhrZeiodQg4RsuuzlO-46" value="" style="edgeStyle=orthogonalEdgeStyle;rounded=0;orthogonalLoop=1;jettySize=auto;html=1;" edge="1" parent="WIyWlLk6GJQsqaUBKTNV-1" source="9dnhrZeiodQg4RsuuzlO-41" target="9dnhrZeiodQg4RsuuzlO-45">
          <mxGeometry relative="1" as="geometry" />
        </mxCell>
        <mxCell id="9dnhrZeiodQg4RsuuzlO-41" value="if diemso&amp;lt;=9" style="rhombus;whiteSpace=wrap;html=1;" vertex="1" parent="WIyWlLk6GJQsqaUBKTNV-1">
          <mxGeometry x="230" y="268" width="150" height="80" as="geometry" />
        </mxCell>
        <mxCell id="9dnhrZeiodQg4RsuuzlO-62" value="" style="edgeStyle=orthogonalEdgeStyle;rounded=0;orthogonalLoop=1;jettySize=auto;html=1;entryX=1;entryY=0.5;entryDx=0;entryDy=0;" edge="1" parent="WIyWlLk6GJQsqaUBKTNV-1" target="9dnhrZeiodQg4RsuuzlO-57">
          <mxGeometry relative="1" as="geometry">
            <mxPoint x="305" y="438" as="sourcePoint" />
            <mxPoint x="290" y="638" as="targetPoint" />
            <Array as="points">
              <mxPoint x="305" y="538" />
              <mxPoint x="291" y="538" />
              <mxPoint x="291" y="630" />
            </Array>
          </mxGeometry>
        </mxCell>
        <mxCell id="9dnhrZeiodQg4RsuuzlO-43" value="output:giá»i&amp;nbsp;" style="whiteSpace=wrap;html=1;" vertex="1" parent="WIyWlLk6GJQsqaUBKTNV-1">
          <mxGeometry x="245" y="380" width="120" height="60" as="geometry" />
        </mxCell>
        <mxCell id="9dnhrZeiodQg4RsuuzlO-48" value="" style="edgeStyle=orthogonalEdgeStyle;rounded=0;orthogonalLoop=1;jettySize=auto;html=1;" edge="1" parent="WIyWlLk6GJQsqaUBKTNV-1" source="9dnhrZeiodQg4RsuuzlO-45" target="9dnhrZeiodQg4RsuuzlO-47">
          <mxGeometry relative="1" as="geometry" />
        </mxCell>
        <mxCell id="9dnhrZeiodQg4RsuuzlO-45" value="if diemso&amp;lt;=10" style="rhombus;whiteSpace=wrap;html=1;" vertex="1" parent="WIyWlLk6GJQsqaUBKTNV-1">
          <mxGeometry x="460" y="268" width="150" height="80" as="geometry" />
        </mxCell>
        <mxCell id="9dnhrZeiodQg4RsuuzlO-64" value="" style="edgeStyle=orthogonalEdgeStyle;rounded=0;orthogonalLoop=1;jettySize=auto;html=1;" edge="1" parent="WIyWlLk6GJQsqaUBKTNV-1">
          <mxGeometry relative="1" as="geometry">
            <mxPoint x="534.5" y="438" as="sourcePoint" />
            <mxPoint x="80" y="630" as="targetPoint" />
            <Array as="points">
              <mxPoint x="535" y="544" />
              <mxPoint x="536" y="544" />
            </Array>
          </mxGeometry>
        </mxCell>
        <mxCell id="9dnhrZeiodQg4RsuuzlO-47" value="output: xuat xáº¯c" style="whiteSpace=wrap;html=1;" vertex="1" parent="WIyWlLk6GJQsqaUBKTNV-1">
          <mxGeometry x="475" y="378" width="120" height="60" as="geometry" />
        </mxCell>
        <mxCell id="9dnhrZeiodQg4RsuuzlO-49" value="no" style="text;html=1;align=center;verticalAlign=middle;resizable=0;points=[];autosize=1;strokeColor=none;fillColor=none;" vertex="1" parent="WIyWlLk6GJQsqaUBKTNV-1">
          <mxGeometry x="390" y="278" width="40" height="30" as="geometry" />
        </mxCell>
        <mxCell id="9dnhrZeiodQg4RsuuzlO-50" value="no" style="text;html=1;align=center;verticalAlign=middle;resizable=0;points=[];autosize=1;strokeColor=none;fillColor=none;" vertex="1" parent="WIyWlLk6GJQsqaUBKTNV-1">
          <mxGeometry x="160" y="278" width="40" height="30" as="geometry" />
        </mxCell>
        <mxCell id="9dnhrZeiodQg4RsuuzlO-52" value="" style="edgeStyle=orthogonalEdgeStyle;rounded=0;orthogonalLoop=1;jettySize=auto;html=1;" edge="1" parent="WIyWlLk6GJQsqaUBKTNV-1" source="9dnhrZeiodQg4RsuuzlO-30" target="9dnhrZeiodQg4RsuuzlO-51">
          <mxGeometry relative="1" as="geometry">
            <mxPoint x="-80" y="308" as="sourcePoint" />
            <mxPoint y="308" as="targetPoint" />
          </mxGeometry>
        </mxCell>
        <mxCell id="9dnhrZeiodQg4RsuuzlO-51" value="no" style="text;html=1;align=center;verticalAlign=middle;resizable=0;points=[];autosize=1;strokeColor=none;fillColor=none;" vertex="1" parent="WIyWlLk6GJQsqaUBKTNV-1">
          <mxGeometry x="-60" y="278" width="40" height="30" as="geometry" />
        </mxCell>
        <mxCell id="9dnhrZeiodQg4RsuuzlO-53" value="yes" style="text;html=1;align=center;verticalAlign=middle;resizable=0;points=[];autosize=1;strokeColor=none;fillColor=none;" vertex="1" parent="WIyWlLk6GJQsqaUBKTNV-1">
          <mxGeometry x="250" y="338" width="40" height="30" as="geometry" />
        </mxCell>
        <mxCell id="9dnhrZeiodQg4RsuuzlO-54" value="yes" style="text;html=1;align=center;verticalAlign=middle;resizable=0;points=[];autosize=1;strokeColor=none;fillColor=none;" vertex="1" parent="WIyWlLk6GJQsqaUBKTNV-1">
          <mxGeometry x="490" y="348" width="40" height="30" as="geometry" />
        </mxCell>
        <mxCell id="9dnhrZeiodQg4RsuuzlO-57" value="end" style="ellipse;whiteSpace=wrap;html=1;" vertex="1" parent="WIyWlLk6GJQsqaUBKTNV-1">
          <mxGeometry x="-195" y="590" width="80" height="80" as="geometry" />
        </mxCell>
      </root>
    </mxGraphModel>
  </diagram>
</mxfile>
